<svg width="44" height="38" viewBox="0 0 44 38" fill="none" xmlns="http://www.w3.org/2000/svg">
<path d="M42.9999 0.0356445H16.4284C16.1927 0.0356445 15.9999 0.228502 15.9999 0.464216V3.46422C15.9999 3.69993 16.1927 3.89279 16.4284 3.89279H42.9999C43.2356 3.89279 43.4284 3.69993 43.4284 3.46422V0.464216C43.4284 0.228502 43.2356 0.0356445 42.9999 0.0356445ZM42.9999 22.7499H16.4284C16.1927 22.7499 15.9999 22.9428 15.9999 23.1785V26.1785C15.9999 26.4142 16.1927 26.6071 16.4284 26.6071H42.9999C43.2356 26.6071 43.4284 26.4142 43.4284 26.1785V23.1785C43.4284 22.9428 43.2356 22.7499 42.9999 22.7499ZM42.9999 34.1071H0.999861C0.764146 34.1071 0.571289 34.2999 0.571289 34.5356V37.5356C0.571289 37.7714 0.764146 37.9642 0.999861 37.9642H42.9999C43.2356 37.9642 43.4284 37.7714 43.4284 37.5356V34.5356C43.4284 34.2999 43.2356 34.1071 42.9999 34.1071ZM42.9999 11.3928H0.999861C0.764146 11.3928 0.571289 11.5856 0.571289 11.8214V14.8214C0.571289 15.0571 0.764146 15.2499 0.999861 15.2499H42.9999C43.2356 15.2499 43.4284 15.0571 43.4284 14.8214V11.8214C43.4284 11.5856 43.2356 11.3928 42.9999 11.3928Z" fill="#00C4F0"/>
</svg>
